<svg width="53" height="150" viewBox="0 0 53 150" fill="none" xmlns="http://www.w3.org/2000/svg">
<line x1="28" y1="8.74228e-08" x2="28" y2="86" stroke="#D434FE" stroke-width="4"/>
<rect y="97" width="53" height="53" rx="26.5" fill="url(#paint0_linear_2070_9)"/>
<path d="M27.648 131.288C26.48 131.288 25.32 131.136 24.168 130.832C23.032 130.512 22.056 130.064 21.24 129.488L22.776 126.512C23.416 126.976 24.152 127.344 24.984 127.616C25.832 127.888 26.688 128.024 27.552 128.024C28.528 128.024 29.296 127.832 29.856 127.448C30.416 127.064 30.696 126.528 30.696 125.84C30.696 125.408 30.584 125.024 30.36 124.688C30.136 124.352 29.736 124.096 29.16 123.92C28.6 123.744 27.808 123.656 26.784 123.656H22.488L23.352 114.2H33.6V117.32H24.744L26.76 115.544L26.16 122.288L24.144 120.512H27.696C29.36 120.512 30.696 120.744 31.704 121.208C32.728 121.656 33.472 122.272 33.936 123.056C34.4 123.84 34.632 124.728 34.632 125.72C34.632 126.712 34.384 127.632 33.888 128.48C33.392 129.312 32.624 129.992 31.584 130.52C30.56 131.032 29.248 131.288 27.648 131.288Z" fill="white"/>
<defs>
<linearGradient id="paint0_linear_2070_9" x1="53" y1="97" x2="0" y2="97" gradientUnits="userSpaceOnUse">
<stop stop-color="#903AFF"/>
<stop offset="1" stop-color="#D434FE"/>
</linearGradient>
</defs>
</svg>
