<svg width="53" height="150" viewBox="0 0 53 150" fill="none" xmlns="http://www.w3.org/2000/svg">
<line x1="28" y1="8.74228e-08" x2="28" y2="86" stroke="#D434FE" stroke-width="4"/>
<rect y="97" width="53" height="53" rx="26.5" fill="url(#paint0_linear_2070_10)"/>
<path d="M29.448 131.288C27.912 131.288 26.576 130.968 25.44 130.328C24.32 129.688 23.456 128.752 22.848 127.52C22.24 126.288 21.936 124.768 21.936 122.96C21.936 121.024 22.296 119.384 23.016 118.04C23.752 116.696 24.76 115.672 26.04 114.968C27.336 114.264 28.824 113.912 30.504 113.912C31.4 113.912 32.256 114.008 33.072 114.2C33.888 114.392 34.592 114.68 35.184 115.064L33.744 117.92C33.28 117.6 32.784 117.384 32.256 117.272C31.728 117.144 31.176 117.08 30.6 117.08C29.144 117.08 27.992 117.52 27.144 118.4C26.296 119.28 25.872 120.584 25.872 122.312C25.872 122.6 25.872 122.92 25.872 123.272C25.888 123.624 25.936 123.976 26.016 124.328L24.936 123.32C25.24 122.696 25.632 122.176 26.112 121.76C26.592 121.328 27.16 121.008 27.816 120.8C28.488 120.576 29.224 120.464 30.024 120.464C31.112 120.464 32.088 120.68 32.952 121.112C33.816 121.544 34.504 122.152 35.016 122.936C35.544 123.72 35.808 124.64 35.808 125.696C35.808 126.832 35.52 127.824 34.944 128.672C34.384 129.504 33.624 130.152 32.664 130.616C31.72 131.064 30.648 131.288 29.448 131.288ZM29.232 128.384C29.776 128.384 30.256 128.288 30.672 128.096C31.104 127.888 31.44 127.592 31.68 127.208C31.92 126.824 32.04 126.384 32.04 125.888C32.04 125.12 31.776 124.512 31.248 124.064C30.736 123.6 30.048 123.368 29.184 123.368C28.608 123.368 28.104 123.48 27.672 123.704C27.24 123.912 26.896 124.208 26.64 124.592C26.4 124.96 26.28 125.392 26.28 125.888C26.28 126.368 26.4 126.8 26.64 127.184C26.88 127.552 27.216 127.848 27.648 128.072C28.08 128.28 28.608 128.384 29.232 128.384Z" fill="white"/>
<defs>
<linearGradient id="paint0_linear_2070_10" x1="53" y1="97" x2="0" y2="97" gradientUnits="userSpaceOnUse">
<stop stop-color="#903AFF"/>
<stop offset="1" stop-color="#D434FE"/>
</linearGradient>
</defs>
</svg>
