<svg width="53" height="150" viewBox="0 0 53 150" fill="none" xmlns="http://www.w3.org/2000/svg">
<line x1="28" y1="8.74228e-08" x2="28" y2="86" stroke="#D434FE" stroke-width="4"/>
<rect y="97" width="53" height="53" rx="26.5" fill="url(#paint0_linear_2070_6)"/>
<path d="M28.384 132.288C27.216 132.288 26.056 132.136 24.904 131.832C23.752 131.512 22.776 131.064 21.976 130.488L23.488 127.512C24.128 127.976 24.872 128.344 25.72 128.616C26.568 128.888 27.424 129.024 28.288 129.024C29.264 129.024 30.032 128.832 30.592 128.448C31.152 128.064 31.432 127.536 31.432 126.864C31.432 126.224 31.184 125.72 30.688 125.352C30.192 124.984 29.392 124.8 28.288 124.8H26.512V122.232L31.192 116.928L31.624 118.32H22.816V115.2H34.576V117.72L29.92 123.024L27.952 121.896H29.08C31.144 121.896 32.704 122.36 33.76 123.288C34.816 124.216 35.344 125.408 35.344 126.864C35.344 127.808 35.096 128.696 34.6 129.528C34.104 130.344 33.344 131.008 32.32 131.52C31.296 132.032 29.984 132.288 28.384 132.288Z" fill="white"/>
<defs>
<linearGradient id="paint0_linear_2070_6" x1="53" y1="97" x2="0" y2="97" gradientUnits="userSpaceOnUse">
<stop stop-color="#903AFF"/>
<stop offset="1" stop-color="#D434FE"/>
</linearGradient>
</defs>
</svg>
