<svg width="53" height="150" viewBox="0 0 53 150" fill="none" xmlns="http://www.w3.org/2000/svg">
<line x1="28" y1="8.74228e-08" x2="28" y2="86" stroke="#D434FE" stroke-width="4"/>
<rect y="97" width="53" height="53" rx="26.5" fill="url(#paint0_linear_2070_3)"/>
<path d="M22.792 132V129.48L29.272 123.36C29.784 122.896 30.16 122.48 30.4 122.112C30.64 121.744 30.8 121.408 30.88 121.104C30.976 120.8 31.024 120.52 31.024 120.264C31.024 119.592 30.792 119.08 30.328 118.728C29.88 118.36 29.216 118.176 28.336 118.176C27.632 118.176 26.976 118.312 26.368 118.584C25.776 118.856 25.272 119.28 24.856 119.856L22.024 118.032C22.664 117.072 23.56 116.312 24.712 115.752C25.864 115.192 27.192 114.912 28.696 114.912C29.944 114.912 31.032 115.12 31.96 115.536C32.904 115.936 33.632 116.504 34.144 117.24C34.672 117.976 34.936 118.856 34.936 119.88C34.936 120.424 34.864 120.968 34.72 121.512C34.592 122.04 34.32 122.6 33.904 123.192C33.504 123.784 32.912 124.448 32.128 125.184L26.752 130.248L26.008 128.832H35.488V132H22.792Z" fill="white"/>
<defs>
<linearGradient id="paint0_linear_2070_3" x1="53" y1="97" x2="0" y2="97" gradientUnits="userSpaceOnUse">
<stop stop-color="#903AFF"/>
<stop offset="1" stop-color="#D434FE"/>
</linearGradient>
</defs>
</svg>
